<svg width="17" height="17" viewBox="0 0 17 17" fill="none" xmlns="http://www.w3.org/2000/svg">
<path d="M13.6538 2.82941H5.65381C5.5212 2.82941 5.39402 2.88209 5.30026 2.97585C5.20649 3.06962 5.15381 3.1968 5.15381 3.32941V5.82941H2.65381C2.5212 5.82941 2.39402 5.88209 2.30026 5.97585C2.20649 6.06962 2.15381 6.1968 2.15381 6.32941V14.3294C2.15381 14.462 2.20649 14.5892 2.30026 14.683C2.39402 14.7767 2.5212 14.8294 2.65381 14.8294H10.6538C10.7864 14.8294 10.9136 14.7767 11.0074 14.683C11.1011 14.5892 11.1538 14.462 11.1538 14.3294V11.8294H13.6538C13.7864 11.8294 13.9136 11.7767 14.0074 11.683C14.1011 11.5892 14.1538 11.462 14.1538 11.3294V3.32941C14.1538 3.1968 14.1011 3.06962 14.0074 2.97585C13.9136 2.88209 13.7864 2.82941 13.6538 2.82941ZM10.1538 13.8294H3.15381V6.82941H10.1538V13.8294ZM13.1538 10.8294H11.1538V6.32941C11.1538 6.1968 11.1011 6.06962 11.0074 5.97585C10.9136 5.88209 10.7864 5.82941 10.6538 5.82941H6.15381V3.82941H13.1538V10.8294Z" fill="#C0C0C0"/>
</svg>
